<svg id="Capa_1" enable-background="new 0 0 512 512" height="512" viewBox="0 0 512 512" width="512" xmlns="http://www.w3.org/2000/svg"><g><g><path d="m341 273h-170c-3.731 0-7.329-1.391-10.09-3.901l-15.783-14.349c-28.044-25.493-44.127-61.851-44.127-99.75 0-85.468 69.533-155 155-155s155 69.532 155 155c0 37.899-16.083 74.257-44.127 99.751l-15.783 14.348c-2.761 2.51-6.359 3.901-10.09 3.901z" fill="#00429b"/><path d="m341 273c3.731 0 7.329-1.391 10.09-3.901l15.783-14.348c28.044-25.494 44.127-61.852 44.127-99.751 0-85.468-69.533-155-155-155v273z" fill="#00337a"/><g><g><path d="m446 512h-380c-8.284 0-15-6.716-15-15v-63.143c0-35.388 25.152-66.276 59.805-73.445l97.156-20.101c1-.207 2.018-.312 3.039-.312h90c1.021 0 2.04.104 3.039.312l97.156 20.102v-.001c34.653 7.169 59.805 38.058 59.805 73.445v63.143c0 8.284-6.716 15-15 15z" fill="#55c8ff"/></g></g><path d="m461 497v-63.143c0-35.388-25.152-66.276-59.805-73.445v.001l-97.156-20.102c-1-.207-2.018-.312-3.039-.312h-45v172h190c8.284.001 15-6.715 15-14.999z" fill="#32b2f0"/><g><path d="m146 420c-8.284 0-15 6.716-15 15v77h30v-77c0-8.284-6.716-15-15-15z" fill="#32b2f0"/><path d="m366 420c-8.284 0-15 6.716-15 15v77h30v-77c0-8.284-6.716-15-15-15z" fill="#1e8ed7"/></g><path d="m256 410c-33.084 0-60-26.916-60-60v-44.139c0-8.284 6.716-15 15-15h90c8.284 0 15 6.716 15 15v44.139c0 33.084-26.916 60-60 60z" fill="#ffc18f"/><path d="m301 290.861h-45v119.139c33.084 0 60-26.916 60-60v-44.139c0-8.284-6.716-15-15-15z" fill="#f0b080"/><path d="m256 333c-57.897 0-105-47.103-105-105v-94.998c0-4.632 2.14-9.005 5.798-11.846 3.658-2.843 8.425-3.833 12.912-2.688l89.575 22.869c27.257 6.961 55.87-.277 76.541-19.357 4.378-4.041 10.732-5.108 16.19-2.718s8.984 7.782 8.984 13.74v94.998c0 57.897-47.103 105-105 105z" fill="#ffd2aa"/><path d="m352.016 119.262c-5.458-2.391-11.812-1.323-16.19 2.718-20.671 19.08-49.283 26.318-76.541 19.357l-3.285-.839v192.502c57.897 0 105-47.103 105-105v-94.998c0-5.958-3.526-11.351-8.984-13.74z" fill="#ffc18f"/></g></g></svg>